#
#
#

mtllib cylinder.mtl


#
# Cylinder
#
g Cylinder


#
# Cylinder_Lambert[24]
#
usemtl Cylinder_Lambert[24]

v 1.000000 2.500000 0.000000
v 0.951057 2.500000 0.309017
v 0.809017 2.500000 0.587785
v 0.587785 2.500000 0.809017
v 0.309017 2.500000 0.951057
v 0.000000 2.500000 1.000000
v -0.309017 2.500000 0.951057
v -0.587785 2.500000 0.809017
v -0.809017 2.500000 0.587785
v -0.951057 2.500000 0.309017
v -1.000000 2.500000 0.000000
v -0.951057 2.500000 -0.309017
v -0.809017 2.500000 -0.587785
v -0.587785 2.500000 -0.809017
v -0.309017 2.500000 -0.951057
v -0.000000 2.500000 -1.000000
v 0.309017 2.500000 -0.951057
v 0.587785 2.500000 -0.809017
v 0.809017 2.500000 -0.587785
v 0.951057 2.500000 -0.309017
v 1.000000 -2.500000 0.000000
v 0.951057 -2.500000 0.309017
v 0.809017 -2.500000 0.587785
v 0.587785 -2.500000 0.809017
v 0.309017 -2.500000 0.951057
v 0.000000 -2.500000 1.000000
v -0.309017 -2.500000 0.951057
v -0.587785 -2.500000 0.809017
v -0.809017 -2.500000 0.587785
v -0.951057 -2.500000 0.309017
v -1.000000 -2.500000 0.000000
v -0.951057 -2.500000 -0.309017
v -0.809017 -2.500000 -0.587785
v -0.587785 -2.500000 -0.809017
v -0.309017 -2.500000 -0.951057
v -0.000000 -2.500000 -1.000000
v 0.309017 -2.500000 -0.951057
v 0.587785 -2.500000 -0.809017
v 0.809017 -2.500000 -0.587785
v 0.951057 -2.500000 -0.309017
v 0.000000 2.500000 0.000000
v 0.000000 -2.500000 0.000000
vn 0.998609 0.000000 0.052721
vn 0.933442 0.000000 0.358728
vn 0.966026 0.000000 0.258446
vn 0.998609 0.000000 -0.052721
vn 0.000000 1.000000 0.000000
vn 0.000000 1.000000 0.000000
vn 0.000000 -1.000000 0.000000
vn 0.000000 -1.000000 0.000000
vn 0.776903 0.000000 0.629620
vn 0.838881 0.000000 0.544315
vn 0.000000 1.000000 0.000000
vn 0.000000 -1.000000 0.000000
vn 0.544315 0.000000 0.838881
vn 0.629620 0.000000 0.776903
vn 0.838881 0.000000 0.544315
vn 0.258446 0.000000 0.966026
vn 0.358728 0.000000 0.933442
vn -0.052721 0.000000 0.998609
vn 0.052721 0.000000 0.998609
vn -0.358728 0.000000 0.933442
vn -0.258446 0.000000 0.966026
vn -0.629620 0.000000 0.776903
vn -0.544315 0.000000 0.838881
vn -0.358728 0.000000 0.933442
vn -0.838881 0.000000 0.544315
vn -0.776903 0.000000 0.629620
vn -0.966026 0.000000 0.258446
vn -0.933442 0.000000 0.358728
vn -0.998609 0.000000 -0.052721
vn -0.998609 0.000000 0.052721
vn -0.933442 0.000000 -0.358728
vn -0.966026 0.000000 -0.258446
vn 0.000000 1.000000 -0.000000
vn 0.000000 -1.000000 -0.000000
vn -0.776903 0.000000 -0.629620
vn -0.838881 0.000000 -0.544315
vn 0.000000 1.000000 -0.000000
vn 0.000000 1.000000 -0.000000
vn 0.000000 -1.000000 -0.000000
vn 0.000000 -1.000000 -0.000000
vn -0.544315 0.000000 -0.838881
vn -0.629620 0.000000 -0.776903
vn -0.838881 0.000000 -0.544315
vn -0.258446 0.000000 -0.966026
vn -0.358728 0.000000 -0.933442
vn 0.052721 0.000000 -0.998609
vn -0.052721 0.000000 -0.998609
vn 0.358728 0.000000 -0.933442
vn 0.258446 0.000000 -0.966026
vn 0.629620 0.000000 -0.776903
vn 0.544315 0.000000 -0.838881
vn 0.358728 0.000000 -0.933442
vn 0.838881 0.000000 -0.544315
vn 0.776903 0.000000 -0.629620
vn 0.966026 0.000000 -0.258446
vn 0.933442 0.000000 -0.358728
vt 0.500000 1.000000
vt 0.475000 1.000000
vt 0.475000 0.000000
vt 0.500000 0.000000
vt 0.500000 0.750000
vt 0.750000 0.750000
vt 0.512236 0.827254
vt 0.512236 0.172746
vt 0.750000 0.250000
vt 0.500000 0.250000
vt 0.450000 1.000000
vt 0.450000 0.000000
vt 0.547746 0.896946
vt 0.547746 0.103054
vt 0.425000 1.000000
vt 0.425000 0.000000
vt 0.603054 0.952254
vt 0.603054 0.047746
vt 0.400000 1.000000
vt 0.400000 0.000000
vt 0.672746 0.987764
vt 0.672746 0.012236
vt 0.375000 1.000000
vt 0.375000 0.000000
vt 0.750000 1.000000
vt 0.750000 0.000000
vt 0.350000 1.000000
vt 0.350000 0.000000
vt 0.827254 0.987764
vt 0.827254 0.012236
vt 0.325000 1.000000
vt 0.325000 0.000000
vt 0.896946 0.952254
vt 0.896946 0.047746
vt 0.300000 1.000000
vt 0.300000 0.000000
vt 0.952254 0.896946
vt 0.952254 0.103054
vt 0.275000 1.000000
vt 0.275000 0.000000
vt 0.987764 0.827254
vt 0.987764 0.172746
vt 0.250000 1.000000
vt 0.250000 0.000000
vt 1.000000 0.750000
vt 1.000000 0.250000
vt 0.225000 1.000000
vt 0.225000 0.000000
vt 0.987764 0.672746
vt 0.987764 0.327254
vt 0.200000 1.000000
vt 0.200000 0.000000
vt 0.952254 0.603054
vt 0.952254 0.396946
vt 0.175000 1.000000
vt 0.175000 0.000000
vt 0.896946 0.547746
vt 0.896946 0.452254
vt 0.150000 1.000000
vt 0.150000 0.000000
vt 0.827254 0.512236
vt 0.827254 0.487764
vt 0.125000 1.000000
vt 0.125000 0.000000
vt 0.750000 0.500000
vt 0.100000 1.000000
vt 0.100000 0.000000
vt 0.672746 0.512236
vt 0.672746 0.487764
vt 0.075000 1.000000
vt 0.075000 0.000000
vt 0.603054 0.547746
vt 0.603054 0.452254
vt 0.050000 1.000000
vt 0.050000 0.000000
vt 0.547746 0.603054
vt 0.547746 0.396946
vt 0.025000 1.000000
vt 0.025000 0.000000
vt 0.512236 0.672746
vt 0.512236 0.327254
vt -0.000000 1.000000
vt -0.000000 0.000000
f 1/1/1 2/2/2 22/3/3
f 1/1/1 22/3/3 21/4/4
f 1/5/5 41/6/5 2/7/6
f 22/8/7 42/9/8 21/10/8
f 2/2/2 3/11/9 23/12/10
f 2/2/2 23/12/10 22/3/3
f 2/7/6 41/6/5 3/13/11
f 23/14/12 42/9/8 22/8/7
f 3/11/9 4/15/13 24/16/14
f 3/11/9 24/16/14 23/12/15
f 3/13/11 41/6/5 4/17/5
f 24/18/8 42/9/8 23/14/12
f 4/15/13 5/19/16 25/20/17
f 4/15/13 25/20/17 24/16/14
f 4/17/5 41/6/5 5/21/5
f 25/22/8 42/9/8 24/18/8
f 5/19/16 6/23/18 26/24/19
f 5/19/16 26/24/19 25/20/17
f 5/21/5 41/6/5 6/25/5
f 26/26/8 42/9/8 25/22/8
f 6/23/18 7/27/20 27/28/21
f 6/23/18 27/28/21 26/24/19
f 6/25/5 41/6/5 7/29/5
f 27/30/8 42/9/8 26/26/8
f 7/27/20 8/31/22 28/32/23
f 7/27/24 28/32/23 27/28/21
f 7/29/5 41/6/5 8/33/5
f 28/34/8 42/9/8 27/30/8
f 8/31/22 9/35/25 29/36/26
f 8/31/22 29/36/26 28/32/23
f 8/33/5 41/6/5 9/37/11
f 29/38/12 42/9/8 28/34/8
f 9/35/25 10/39/27 30/40/28
f 9/35/25 30/40/28 29/36/26
f 9/37/11 41/6/5 10/41/6
f 30/42/7 42/9/8 29/38/12
f 10/39/27 11/43/29 31/44/30
f 10/39/27 31/44/30 30/40/28
f 10/41/6 41/6/5 11/45/5
f 31/46/8 42/9/8 30/42/7
f 11/43/29 12/47/31 32/48/32
f 11/43/29 32/48/32 31/44/30
f 11/45/5 41/6/5 12/49/33
f 32/50/34 42/9/8 31/46/8
f 12/47/31 13/51/35 33/52/36
f 12/47/31 33/52/36 32/48/32
f 12/49/33 41/6/37 13/53/38
f 33/54/39 42/9/40 32/50/34
f 13/51/35 14/55/41 34/56/42
f 13/51/35 34/56/42 33/52/43
f 13/53/38 41/6/5 14/57/5
f 34/58/8 42/9/8 33/54/39
f 14/55/41 15/59/44 35/60/45
f 14/55/41 35/60/45 34/56/42
f 14/57/5 41/6/5 15/61/5
f 35/62/8 42/9/8 34/58/8
f 15/59/44 16/63/46 36/64/47
f 15/59/44 36/64/47 35/60/45
f 15/61/5 41/6/5 16/65/5
f 36/65/8 42/9/8 35/62/8
f 16/63/46 17/66/48 37/67/49
f 16/63/46 37/67/49 36/64/47
f 16/65/5 41/6/5 17/68/5
f 37/69/8 42/9/8 36/65/8
f 17/66/48 18/70/50 38/71/51
f 17/66/52 38/71/51 37/67/49
f 17/68/5 41/6/5 18/72/5
f 38/73/8 42/9/8 37/69/8
f 18/70/50 19/74/53 39/75/54
f 18/70/50 39/75/54 38/71/51
f 18/72/5 41/6/5 19/76/38
f 39/77/39 42/9/8 38/73/8
f 19/74/53 20/78/55 40/79/56
f 19/74/53 40/79/56 39/75/54
f 19/76/38 41/6/37 20/80/33
f 40/81/34 42/9/40 39/77/39
f 20/78/55 1/82/1 21/83/4
f 20/78/55 21/83/4 40/79/56
f 20/80/33 41/6/5 1/5/5
f 21/10/8 42/9/8 40/81/34
